# xmcd
#
# Track frame offsets:
#	150
#	22237
#	49722
#	76085
#	91747
#	116072
#	137755
#	167435
#	187540
#	206380
#	229017
#	257295
#
# Disc length: 3722 seconds
#
# Revision: 2
# Processed by: cddbd v1.4PL0 Copyright (c) Steve Scherf et al.
# Submitted via: CDmax 1.8
#
DISCID=860e880c
DTITLE=Johnny Winter - The Return Of Johnny Guitar
DYEAR=1996
DGENRE=Blues
TTITLE0=Mojo Boogie
TTITLE1=Good Time Woman
TTITLE2=Tin Pan Alley
TTITLE3=Sound The Bell
TTITLE4=Don't Take Advantage Of Me
TTITLE5=I Smell Trouble
TTITLE6=Third Degree
TTITLE7=Mad Dog
TTITLE8=It's My Life, Baby
TTITLE9=Murdering Blues
TTITLE10=My Time After Awhile
TTITLE11=Broke And Lonely
EXTD=
EXTT0=
EXTT1=
EXTT2=
EXTT3=
EXTT4=
EXTT5=
EXTT6=
EXTT7=
EXTT8=
EXTT9=
EXTT10=
EXTT11=
PLAYORDER=
